<svg xmlns="http://www.w3.org/2000/svg" width="32" height="32" viewBox="0 0 32 32">
  <rect width="32" height="32" fill="#050510"/>
  <defs>
    <filter id="glow">
      <feGaussianBlur stdDeviation="0.64" result="blur"/>
      <feMerge>
        <feMergeNode in="blur"/>
        <feMergeNode in="SourceGraphic"/>
      </feMerge>
    </filter>
    <linearGradient id="spiralGrad" x1="0%" y1="0%" x2="100%" y2="100%">
      <stop offset="0%" stop-color="#00d4ff"/>
      <stop offset="50%" stop-color="#4169e1"/>
      <stop offset="100%" stop-color="#8a2be2"/>
    </linearGradient>
  </defs>
  <path d="M17.7,16.0 L17.8,16.4 L17.8,16.8 L17.6,17.3 L17.2,17.7 L16.7,18.1 L16.0,18.3 L15.2,18.3 L14.4,18.1 L13.5,17.7 L12.8,17.1 L12.3,16.3 L11.9,15.4 L11.9,14.3 L12.1,13.2 L12.7,12.2 L13.6,11.4 L14.7,10.7 L16.0,10.3 L17.4,10.3 L18.8,10.5 L20.1,11.2 L21.2,12.1 L22.0,13.3 L22.4,14.7 L22.4,16.2 L21.9,17.7 L21.0,19.0 L19.6,20.1 L17.9,20.9 L16.0,21.3 L14.0,21.2 L12.0,20.5 L10.2,19.5 L8.7,18.0 L7.7,16.1 L7.2,14.1 L7.3,11.9 L8.0,9.8 L9.3,7.9 L11.2,6.4 L13.5,5.3 L16.0,4.8 L18.6,4.8 L21.2,5.5 L23.5,6.9 L25.4,8.7 L26.6,10.9 L27.2,13.4" fill="none" stroke="url(#spiralGrad)" stroke-width="0.96" stroke-linecap="round" filter="url(#glow)"/>
  <circle cx="16" cy="16" r="1.28" fill="#00d4ff" filter="url(#glow)"/>
</svg>