<svg xmlns="http://www.w3.org/2000/svg" width="192" height="192" viewBox="0 0 192 192">
  <rect width="192" height="192" fill="#050510"/>
  <defs>
    <filter id="glow">
      <feGaussianBlur stdDeviation="3.84" result="blur"/>
      <feMerge>
        <feMergeNode in="blur"/>
        <feMergeNode in="SourceGraphic"/>
      </feMerge>
    </filter>
    <linearGradient id="spiralGrad" x1="0%" y1="0%" x2="100%" y2="100%">
      <stop offset="0%" stop-color="#00d4ff"/>
      <stop offset="50%" stop-color="#4169e1"/>
      <stop offset="100%" stop-color="#8a2be2"/>
    </linearGradient>
  </defs>
  <path d="M104.1,96.0 L104.7,97.8 L104.7,100.0 L103.7,102.2 L102.0,104.3 L99.3,105.9 L96.0,106.9 L92.2,107.0 L88.1,106.2 L84.2,104.3 L80.7,101.4 L78.0,97.5 L76.5,92.9 L76.2,87.9 L77.4,82.8 L80.2,77.9 L84.3,73.7 L89.7,70.5 L96.0,68.6 L102.8,68.3 L109.6,69.7 L115.9,72.7 L121.2,77.3 L125.0,83.1 L127.0,89.8 L126.9,97.0 L124.5,104.1 L119.9,110.6 L113.4,115.9 L105.3,119.6 L96.0,121.3 L86.2,120.8 L76.7,117.9 L68.0,112.7 L60.9,105.5 L55.9,96.7 L53.6,86.8 L54.1,76.4 L57.6,66.3 L64.0,57.2 L72.9,49.7 L83.8,44.4 L96.0,41.9 L108.7,42.3 L121.0,45.7 L132.1,52.0 L141.0,60.8 L147.1,71.6 L149.9,83.7" fill="none" stroke="url(#spiralGrad)" stroke-width="5.76" stroke-linecap="round" filter="url(#glow)"/>
  <circle cx="96" cy="96" r="7.68" fill="#00d4ff" filter="url(#glow)"/>
</svg>