<svg xmlns="http://www.w3.org/2000/svg" width="192" height="192" viewBox="0 0 192 192">
  <rect width="192" height="192" fill="#050510"/>
  <defs>
    <filter id="glow">
      <feGaussianBlur stdDeviation="3.84" result="blur"/>
      <feMerge>
        <feMergeNode in="blur"/>
        <feMergeNode in="SourceGraphic"/>
      </feMerge>
    </filter>
    <linearGradient id="spiralGrad" x1="0%" y1="0%" x2="100%" y2="100%">
      <stop offset="0%" stop-color="#00d4ff"/>
      <stop offset="50%" stop-color="#4169e1"/>
      <stop offset="100%" stop-color="#8a2be2"/>
    </linearGradient>
  </defs>
  <path d="M106.1,96.0 L106.9,98.3 L106.8,101.0 L105.7,103.7 L103.4,106.3 L100.1,108.3 L96.0,109.6 L91.2,109.8 L86.2,108.7 L81.3,106.4 L77.0,102.7 L73.6,97.9 L71.6,92.2 L71.3,85.9 L72.8,79.5 L76.3,73.4 L81.4,68.2 L88.2,64.2 L96.0,61.9 L104.5,61.5 L112.9,63.2 L120.8,67.0 L127.4,72.6 L132.2,79.9 L134.6,88.3 L134.5,97.3 L131.5,106.1 L125.8,114.2 L117.7,120.9 L107.5,125.5 L96.0,127.6 L83.8,126.9 L71.9,123.3 L61.1,116.8 L52.2,107.9 L46.0,96.8 L43.1,84.5 L43.7,71.6 L48.1,59.0 L56.1,47.6 L67.2,38.2 L80.8,31.7 L96.0,28.5 L111.9,29.0 L127.2,33.3 L141.0,41.1 L152.1,52.1 L159.8,65.6 L163.2,80.6" fill="none" stroke="url(#spiralGrad)" stroke-width="5.76" stroke-linecap="round" filter="url(#glow)"/>
  <circle cx="96" cy="96" r="7.68" fill="#00d4ff" filter="url(#glow)"/>
</svg>